<svg height="4974" width="720" xmlns="http://www.w3.org/2000/svg">
<rect height="4974" fill="#555" width="720"></rect>
<text fill="#7f7" font-family="Courier New" font-size="12" xml:space="preserve">
<tspan x="10" y="26">└─┬ stream-adventure@4.0.5 </tspan>
<tspan x="10" y="42">  ├─┬ adventure@2.11.0 </tspan>
<tspan x="10" y="58">  │ ├── inherits@2.0.3 </tspan>
<tspan x="10" y="74">  │ ├── minimist@0.2.0 </tspan>
<tspan x="10" y="90">  │ ├── split@0.3.3 </tspan>
<tspan x="10" y="106">  │ └─┬ through2@0.5.1 </tspan>
<tspan x="10" y="122">  │   ├── readable-stream@1.0.34 </tspan>
<tspan x="10" y="138">  │   └── xtend@3.0.0 </tspan>
<tspan x="10" y="154">  ├─┬ adventure-verify@2.2.0 </tspan>
<tspan x="10" y="170">  │ ├─┬ tap-colorize@1.2.0 </tspan>
<tspan x="10" y="186">  │ │ ├── colornames@0.0.2 </tspan>
<tspan x="10" y="202">  │ │ ├── quotemeta@0.0.0 </tspan>
<tspan x="10" y="218">  │ │ ├── split@0.3.3 </tspan>
<tspan x="10" y="234">  │ │ └─┬ through2@1.0.0 </tspan>
<tspan x="10" y="250">  │ │   └─┬ xtend@2.1.2 </tspan>
<tspan x="10" y="266">  │ │     └── object-keys@0.4.0 </tspan>
<tspan x="10" y="282">  │ ├── tap-parser@0.5.0 </tspan>
<tspan x="10" y="298">  │ └─┬ tape@2.14.1 </tspan>
<tspan x="10" y="314">  │   ├── deep-equal@0.2.2 </tspan>
<tspan x="10" y="330">  │   ├── defined@0.0.0 </tspan>
<tspan x="10" y="346">  │   ├─┬ glob@3.2.11 </tspan>
<tspan x="10" y="362">  │   │ └─┬ minimatch@0.3.0 </tspan>
<tspan x="10" y="378">  │   │   ├── lru-cache@2.7.3 </tspan>
<tspan x="10" y="394">  │   │   └── sigmund@1.0.1 </tspan>
<tspan x="10" y="410">  │   ├── has@0.0.1 </tspan>
<tspan x="10" y="426">  │   └── object-inspect@1.2.2 </tspan>
<tspan x="10" y="442">  ├─┬ browserify@13.3.0 </tspan>
<tspan x="10" y="458">  │ ├── assert@1.4.1 </tspan>
<tspan x="10" y="474">  │ ├─┬ browser-pack@6.0.2 </tspan>
<tspan x="10" y="490">  │ │ ├─┬ combine-source-map@0.7.2 </tspan>
<tspan x="10" y="506">  │ │ │ ├── convert-source-map@1.1.3 </tspan>
<tspan x="10" y="522">  │ │ │ ├── inline-source-map@0.6.2 </tspan>
<tspan x="10" y="538">  │ │ │ ├── lodash.memoize@3.0.4 </tspan>
<tspan x="10" y="554">  │ │ │ └── source-map@0.5.6 </tspan>
<tspan x="10" y="570">  │ │ ├── defined@1.0.0 </tspan>
<tspan x="10" y="586">  │ │ └── umd@3.0.1 </tspan>
<tspan x="10" y="602">  │ ├─┬ browser-resolve@1.11.2 </tspan>
<tspan x="10" y="618">  │ │ └── resolve@1.1.7 </tspan>
<tspan x="10" y="634">  │ ├─┬ browserify-zlib@0.1.4 </tspan>
<tspan x="10" y="650">  │ │ └── pako@0.2.9 </tspan>
<tspan x="10" y="666">  │ ├─┬ buffer@4.9.1 </tspan>
<tspan x="10" y="682">  │ │ ├── base64-js@1.2.0 </tspan>
<tspan x="10" y="698">  │ │ ├── ieee754@1.1.8 </tspan>
<tspan x="10" y="714">  │ │ └── isarray@1.0.0 </tspan>
<tspan x="10" y="730">  │ ├── cached-path-relative@1.0.1 </tspan>
<tspan x="10" y="746">  │ ├─┬ concat-stream@1.5.2 </tspan>
<tspan x="10" y="762">  │ │ └── readable-stream@2.0.6 </tspan>
<tspan x="10" y="778">  │ ├─┬ console-browserify@1.1.0 </tspan>
<tspan x="10" y="794">  │ │ └── date-now@0.1.4 </tspan>
<tspan x="10" y="810">  │ ├── constants-browserify@1.0.0 </tspan>
<tspan x="10" y="826">  │ ├─┬ crypto-browserify@3.11.0 </tspan>
<tspan x="10" y="842">  │ │ ├─┬ browserify-cipher@1.0.0 </tspan>
<tspan x="10" y="858">  │ │ │ ├─┬ browserify-aes@1.0.6 </tspan>
<tspan x="10" y="874">  │ │ │ │ └── buffer-xor@1.0.3 </tspan>
<tspan x="10" y="890">  │ │ │ ├─┬ browserify-des@1.0.0 </tspan>
<tspan x="10" y="906">  │ │ │ │ └── des.js@1.0.0 </tspan>
<tspan x="10" y="922">  │ │ │ └── evp_bytestokey@1.0.0 </tspan>
<tspan x="10" y="938">  │ │ ├─┬ browserify-sign@4.0.4 </tspan>
<tspan x="10" y="954">  │ │ │ ├── bn.js@4.11.6 </tspan>
<tspan x="10" y="970">  │ │ │ ├── browserify-rsa@4.0.1 </tspan>
<tspan x="10" y="986">  │ │ │ ├─┬ elliptic@6.4.0 </tspan>
<tspan x="10" y="1002">  │ │ │ │ ├── brorand@1.1.0 </tspan>
<tspan x="10" y="1018">  │ │ │ │ ├── hash.js@1.0.3 </tspan>
<tspan x="10" y="1034">  │ │ │ │ ├── hmac-drbg@1.0.0 </tspan>
<tspan x="10" y="1050">  │ │ │ │ ├── minimalistic-assert@1.0.0 </tspan>
<tspan x="10" y="1066">  │ │ │ │ └── minimalistic-crypto-utils@1.0.1 </tspan>
<tspan x="10" y="1082">  │ │ │ └─┬ parse-asn1@5.1.0 </tspan>
<tspan x="10" y="1098">  │ │ │   └── asn1.js@4.9.1 </tspan>
<tspan x="10" y="1114">  │ │ ├── create-ecdh@4.0.0 </tspan>
<tspan x="10" y="1130">  │ │ ├─┬ create-hash@1.1.2 </tspan>
<tspan x="10" y="1146">  │ │ │ ├── cipher-base@1.0.3 </tspan>
<tspan x="10" y="1162">  │ │ │ └── ripemd160@1.0.1 </tspan>
<tspan x="10" y="1178">  │ │ ├── create-hmac@1.1.4 </tspan>
<tspan x="10" y="1194">  │ │ ├─┬ diffie-hellman@5.0.2 </tspan>
<tspan x="10" y="1210">  │ │ │ └── miller-rabin@4.0.0 </tspan>
<tspan x="10" y="1226">  │ │ ├── pbkdf2@3.0.9 </tspan>
<tspan x="10" y="1242">  │ │ ├── public-encrypt@4.0.0 </tspan>
<tspan x="10" y="1258">  │ │ └── randombytes@2.0.3 </tspan>
<tspan x="10" y="1274">  │ ├── defined@1.0.0 </tspan>
<tspan x="10" y="1290">  │ ├── deps-sort@2.0.0 </tspan>
<tspan x="10" y="1306">  │ ├── domain-browser@1.1.7 </tspan>
<tspan x="10" y="1322">  │ ├── events@1.1.1 </tspan>
<tspan x="10" y="1338">  │ ├─┬ glob@7.1.1 </tspan>
<tspan x="10" y="1354">  │ │ ├── fs.realpath@1.0.0 </tspan>
<tspan x="10" y="1370">  │ │ ├─┬ inflight@1.0.6 </tspan>
<tspan x="10" y="1386">  │ │ │ └── wrappy@1.0.2 </tspan>
<tspan x="10" y="1402">  │ │ ├─┬ minimatch@3.0.3 </tspan>
<tspan x="10" y="1418">  │ │ │ └─┬ brace-expansion@1.1.6 </tspan>
<tspan x="10" y="1434">  │ │ │   ├── balanced-match@0.4.2 </tspan>
<tspan x="10" y="1450">  │ │ │   └── concat-map@0.0.1 </tspan>
<tspan x="10" y="1466">  │ │ ├── once@1.4.0 </tspan>
<tspan x="10" y="1482">  │ │ └── path-is-absolute@1.0.1 </tspan>
<tspan x="10" y="1498">  │ ├─┬ has@1.0.1 </tspan>
<tspan x="10" y="1514">  │ │ └── function-bind@1.1.0 </tspan>
<tspan x="10" y="1530">  │ ├── htmlescape@1.1.1 </tspan>
<tspan x="10" y="1546">  │ ├── https-browserify@0.0.1 </tspan>
<tspan x="10" y="1562">  │ ├─┬ insert-module-globals@7.0.1 </tspan>
<tspan x="10" y="1578">  │ │ ├─┬ concat-stream@1.5.2 </tspan>
<tspan x="10" y="1594">  │ │ │ └─┬ readable-stream@2.0.6 </tspan>
<tspan x="10" y="1610">  │ │ │   └── isarray@1.0.0 </tspan>
<tspan x="10" y="1626">  │ │ ├── is-buffer@1.1.5 </tspan>
<tspan x="10" y="1642">  │ │ └─┬ lexical-scope@1.2.0 </tspan>
<tspan x="10" y="1658">  │ │   └── astw@2.2.0 </tspan>
<tspan x="10" y="1674">  │ ├─┬ JSONStream@1.3.1 </tspan>
<tspan x="10" y="1690">  │ │ └── jsonparse@1.3.0 </tspan>
<tspan x="10" y="1706">  │ ├─┬ labeled-stream-splicer@2.0.0 </tspan>
<tspan x="10" y="1722">  │ │ ├── isarray@0.0.1 </tspan>
<tspan x="10" y="1738">  │ │ └─┬ stream-splicer@2.0.0 </tspan>
<tspan x="10" y="1754">  │ │   └─┬ readable-stream@2.2.6 </tspan>
<tspan x="10" y="1770">  │ │     └── isarray@1.0.0 </tspan>
<tspan x="10" y="1786">  │ ├─┬ module-deps@4.1.1 </tspan>
<tspan x="10" y="1802">  │ │ ├─┬ concat-stream@1.5.2 </tspan>
<tspan x="10" y="1818">  │ │ │ └── readable-stream@2.0.6 </tspan>
<tspan x="10" y="1834">  │ │ ├── defined@1.0.0 </tspan>
<tspan x="10" y="1850">  │ │ ├─┬ detective@4.5.0 </tspan>
<tspan x="10" y="1866">  │ │ │ └── defined@1.0.0 </tspan>
<tspan x="10" y="1882">  │ │ ├─┬ readable-stream@2.2.6 </tspan>
<tspan x="10" y="1898">  │ │ │ └── isarray@1.0.0 </tspan>
<tspan x="10" y="1914">  │ │ └─┬ stream-combiner2@1.1.1 </tspan>
<tspan x="10" y="1930">  │ │   └─┬ readable-stream@2.2.6 </tspan>
<tspan x="10" y="1946">  │ │     └── isarray@1.0.0 </tspan>
<tspan x="10" y="1962">  │ ├── os-browserify@0.1.2 </tspan>
<tspan x="10" y="1978">  │ ├─┬ parents@1.0.1 </tspan>
<tspan x="10" y="1994">  │ │ └── path-platform@0.11.15 </tspan>
<tspan x="10" y="2010">  │ ├── path-browserify@0.0.0 </tspan>
<tspan x="10" y="2026">  │ ├── process@0.11.9 </tspan>
<tspan x="10" y="2042">  │ ├── punycode@1.4.1 </tspan>
<tspan x="10" y="2058">  │ ├── querystring-es3@0.2.1 </tspan>
<tspan x="10" y="2074">  │ ├─┬ read-only-stream@2.0.0 </tspan>
<tspan x="10" y="2090">  │ │ └─┬ readable-stream@2.2.6 </tspan>
<tspan x="10" y="2106">  │ │   └── isarray@1.0.0 </tspan>
<tspan x="10" y="2122">  │ ├─┬ readable-stream@2.2.6 </tspan>
<tspan x="10" y="2138">  │ │ ├── buffer-shims@1.0.0 </tspan>
<tspan x="10" y="2154">  │ │ ├── core-util-is@1.0.2 </tspan>
<tspan x="10" y="2170">  │ │ ├── isarray@1.0.0 </tspan>
<tspan x="10" y="2186">  │ │ ├── process-nextick-args@1.0.7 </tspan>
<tspan x="10" y="2202">  │ │ └── util-deprecate@1.0.2 </tspan>
<tspan x="10" y="2218">  │ ├─┬ resolve@1.3.2 </tspan>
<tspan x="10" y="2234">  │ │ └── path-parse@1.0.5 </tspan>
<tspan x="10" y="2250">  │ ├─┬ shasum@1.0.2 </tspan>
<tspan x="10" y="2266">  │ │ ├── json-stable-stringify@0.0.1 </tspan>
<tspan x="10" y="2282">  │ │ └── sha.js@2.4.8 </tspan>
<tspan x="10" y="2298">  │ ├─┬ shell-quote@1.6.1 </tspan>
<tspan x="10" y="2314">  │ │ ├── array-filter@0.0.1 </tspan>
<tspan x="10" y="2330">  │ │ ├── array-map@0.0.0 </tspan>
<tspan x="10" y="2346">  │ │ ├── array-reduce@0.0.0 </tspan>
<tspan x="10" y="2362">  │ │ └── jsonify@0.0.0 </tspan>
<tspan x="10" y="2378">  │ ├─┬ stream-browserify@2.0.1 </tspan>
<tspan x="10" y="2394">  │ │ └─┬ readable-stream@2.2.6 </tspan>
<tspan x="10" y="2410">  │ │   └── isarray@1.0.0 </tspan>
<tspan x="10" y="2426">  │ ├─┬ stream-http@2.6.3 </tspan>
<tspan x="10" y="2442">  │ │ ├── builtin-status-codes@3.0.0 </tspan>
<tspan x="10" y="2458">  │ │ ├─┬ readable-stream@2.2.6 </tspan>
<tspan x="10" y="2474">  │ │ │ └── isarray@1.0.0 </tspan>
<tspan x="10" y="2490">  │ │ └── to-arraybuffer@1.0.1 </tspan>
<tspan x="10" y="2506">  │ ├── string_decoder@0.10.31 </tspan>
<tspan x="10" y="2522">  │ ├─┬ subarg@1.0.0 </tspan>
<tspan x="10" y="2538">  │ │ └── minimist@1.2.0 </tspan>
<tspan x="10" y="2554">  │ ├─┬ syntax-error@1.3.0 </tspan>
<tspan x="10" y="2570">  │ │ └── acorn@4.0.11 </tspan>
<tspan x="10" y="2586">  │ ├── timers-browserify@1.4.2 </tspan>
<tspan x="10" y="2602">  │ ├── tty-browserify@0.0.0 </tspan>
<tspan x="10" y="2618">  │ ├─┬ url@0.11.0 </tspan>
<tspan x="10" y="2634">  │ │ ├── punycode@1.3.2 </tspan>
<tspan x="10" y="2650">  │ │ └── querystring@0.2.0 </tspan>
<tspan x="10" y="2666">  │ ├─┬ util@0.10.3 </tspan>
<tspan x="10" y="2682">  │ │ └── inherits@2.0.1 </tspan>
<tspan x="10" y="2698">  │ ├─┬ vm-browserify@0.0.4 </tspan>
<tspan x="10" y="2714">  │ │ └── indexof@0.0.1 </tspan>
<tspan x="10" y="2730">  │ └── xtend@4.0.1 </tspan>
<tspan x="10" y="2746">  ├── chunky@0.0.0 </tspan>
<tspan x="10" y="2762">  ├── clone@1.0.2 </tspan>
<tspan x="10" y="2778">  ├─┬ concat-stream@1.6.0 </tspan>
<tspan x="10" y="2794">  │ ├─┬ readable-stream@2.2.6 </tspan>
<tspan x="10" y="2810">  │ │ └── isarray@1.0.0 </tspan>
<tspan x="10" y="2826">  │ └── typedarray@0.0.6 </tspan>
<tspan x="10" y="2842">  ├─┬ duplexer2@0.1.4 </tspan>
<tspan x="10" y="2858">  │ └─┬ readable-stream@2.2.6 </tspan>
<tspan x="10" y="2874">  │   └── isarray@1.0.0 </tspan>
<tspan x="10" y="2890">  ├─┬ hyperquest@1.3.0 </tspan>
<tspan x="10" y="2906">  │ ├── duplexer2@0.0.2 </tspan>
<tspan x="10" y="2922">  │ └─┬ through2@0.6.5 </tspan>
<tspan x="10" y="2938">  │   └── readable-stream@1.0.34 </tspan>
<tspan x="10" y="2954">  ├─┬ mkdirp@0.5.1 </tspan>
<tspan x="10" y="2970">  │ └── minimist@0.0.8 </tspan>
<tspan x="10" y="2986">  ├─┬ optimist@0.6.1 </tspan>
<tspan x="10" y="3002">  │ ├── minimist@0.0.10 </tspan>
<tspan x="10" y="3018">  │ └── wordwrap@0.0.3 </tspan>
<tspan x="10" y="3034">  ├─┬ osenv@0.1.4 </tspan>
<tspan x="10" y="3050">  │ ├── os-homedir@1.0.2 </tspan>
<tspan x="10" y="3066">  │ └── os-tmpdir@1.0.2 </tspan>
<tspan x="10" y="3082">  ├─┬ provinces@1.8.2 </tspan>
<tspan x="10" y="3098">  │ └── chinesecities@0.0.2 </tspan>
<tspan x="10" y="3114">  ├─┬ request@2.67.0 </tspan>
<tspan x="10" y="3130">  │ ├── aws-sign2@0.6.0 </tspan>
<tspan x="10" y="3146">  │ ├─┬ bl@1.0.3 </tspan>
<tspan x="10" y="3162">  │ │ └─┬ readable-stream@2.0.6 </tspan>
<tspan x="10" y="3178">  │ │   └── isarray@1.0.0 </tspan>
<tspan x="10" y="3194">  │ ├── caseless@0.11.0 </tspan>
<tspan x="10" y="3210">  │ ├─┬ combined-stream@1.0.5 </tspan>
<tspan x="10" y="3226">  │ │ └── delayed-stream@1.0.0 </tspan>
<tspan x="10" y="3242">  │ ├── extend@3.0.0 </tspan>
<tspan x="10" y="3258">  │ ├── forever-agent@0.6.1 </tspan>
<tspan x="10" y="3274">  │ ├─┬ form-data@1.0.1 </tspan>
<tspan x="10" y="3290">  │ │ └─┬ async@2.3.0 </tspan>
<tspan x="10" y="3306">  │ │   └── lodash@4.17.4 </tspan>
<tspan x="10" y="3322">  │ ├─┬ har-validator@2.0.6 </tspan>
<tspan x="10" y="3338">  │ │ ├─┬ chalk@1.1.3 </tspan>
<tspan x="10" y="3354">  │ │ │ ├── ansi-styles@2.2.1 </tspan>
<tspan x="10" y="3370">  │ │ │ ├── escape-string-regexp@1.0.5 </tspan>
<tspan x="10" y="3386">  │ │ │ ├─┬ has-ansi@2.0.0 </tspan>
<tspan x="10" y="3402">  │ │ │ │ └── ansi-regex@2.1.1 </tspan>
<tspan x="10" y="3418">  │ │ │ ├── strip-ansi@3.0.1 </tspan>
<tspan x="10" y="3434">  │ │ │ └── supports-color@2.0.0 </tspan>
<tspan x="10" y="3450">  │ │ ├─┬ commander@2.9.0 </tspan>
<tspan x="10" y="3466">  │ │ │ └── graceful-readlink@1.0.1 </tspan>
<tspan x="10" y="3482">  │ │ ├─┬ is-my-json-valid@2.16.0 </tspan>
<tspan x="10" y="3498">  │ │ │ ├── generate-function@2.0.0 </tspan>
<tspan x="10" y="3514">  │ │ │ ├─┬ generate-object-property@1.2.0 </tspan>
<tspan x="10" y="3530">  │ │ │ │ └── is-property@1.0.2 </tspan>
<tspan x="10" y="3546">  │ │ │ └── jsonpointer@4.0.1 </tspan>
<tspan x="10" y="3562">  │ │ └─┬ pinkie-promise@2.0.1 </tspan>
<tspan x="10" y="3578">  │ │   └── pinkie@2.0.4 </tspan>
<tspan x="10" y="3594">  │ ├─┬ hawk@3.1.3 </tspan>
<tspan x="10" y="3610">  │ │ ├── boom@2.10.1 </tspan>
<tspan x="10" y="3626">  │ │ ├── cryptiles@2.0.5 </tspan>
<tspan x="10" y="3642">  │ │ ├── hoek@2.16.3 </tspan>
<tspan x="10" y="3658">  │ │ └── sntp@1.0.9 </tspan>
<tspan x="10" y="3674">  │ ├─┬ http-signature@1.1.1 </tspan>
<tspan x="10" y="3690">  │ │ ├── assert-plus@0.2.0 </tspan>
<tspan x="10" y="3706">  │ │ ├─┬ jsprim@1.4.0 </tspan>
<tspan x="10" y="3722">  │ │ │ ├── assert-plus@1.0.0 </tspan>
<tspan x="10" y="3738">  │ │ │ ├── extsprintf@1.0.2 </tspan>
<tspan x="10" y="3754">  │ │ │ ├── json-schema@0.2.3 </tspan>
<tspan x="10" y="3770">  │ │ │ └── verror@1.3.6 </tspan>
<tspan x="10" y="3786">  │ │ └─┬ sshpk@1.11.0 </tspan>
<tspan x="10" y="3802">  │ │   ├── asn1@0.2.3 </tspan>
<tspan x="10" y="3818">  │ │   ├── assert-plus@1.0.0 </tspan>
<tspan x="10" y="3834">  │ │   ├── bcrypt-pbkdf@1.0.1 </tspan>
<tspan x="10" y="3850">  │ │   ├─┬ dashdash@1.14.1 </tspan>
<tspan x="10" y="3866">  │ │   │ └── assert-plus@1.0.0 </tspan>
<tspan x="10" y="3882">  │ │   ├── ecc-jsbn@0.1.1 </tspan>
<tspan x="10" y="3898">  │ │   ├─┬ getpass@0.1.6 </tspan>
<tspan x="10" y="3914">  │ │   │ └── assert-plus@1.0.0 </tspan>
<tspan x="10" y="3930">  │ │   ├── jodid25519@1.0.2 </tspan>
<tspan x="10" y="3946">  │ │   ├── jsbn@0.1.1 </tspan>
<tspan x="10" y="3962">  │ │   └── tweetnacl@0.14.5 </tspan>
<tspan x="10" y="3978">  │ ├── is-typedarray@1.0.0 </tspan>
<tspan x="10" y="3994">  │ ├── isstream@0.1.2 </tspan>
<tspan x="10" y="4010">  │ ├── json-stringify-safe@5.0.1 </tspan>
<tspan x="10" y="4026">  │ ├─┬ mime-types@2.1.15 </tspan>
<tspan x="10" y="4042">  │ │ └── mime-db@1.27.0 </tspan>
<tspan x="10" y="4058">  │ ├── node-uuid@1.4.8 </tspan>
<tspan x="10" y="4074">  │ ├── oauth-sign@0.8.2 </tspan>
<tspan x="10" y="4090">  │ ├── qs@5.2.1 </tspan>
<tspan x="10" y="4106">  │ ├── stringstream@0.0.5 </tspan>
<tspan x="10" y="4122">  │ ├── tough-cookie@2.2.2 </tspan>
<tspan x="10" y="4138">  │ └── tunnel-agent@0.4.3 </tspan>
<tspan x="10" y="4154">  ├─┬ split@1.0.0 </tspan>
<tspan x="10" y="4170">  │ └── through@2.3.8 </tspan>
<tspan x="10" y="4186">  ├─┬ stream-combiner@0.2.2 </tspan>
<tspan x="10" y="4202">  │ └── duplexer@0.1.1 </tspan>
<tspan x="10" y="4218">  ├─┬ tar@2.2.1 </tspan>
<tspan x="10" y="4234">  │ ├── block-stream@0.0.9 </tspan>
<tspan x="10" y="4250">  │ └─┬ fstream@1.0.11 </tspan>
<tspan x="10" y="4266">  │   ├── graceful-fs@4.1.11 </tspan>
<tspan x="10" y="4282">  │   └─┬ rimraf@2.6.1 </tspan>
<tspan x="10" y="4298">  │     └─┬ glob@7.1.1 </tspan>
<tspan x="10" y="4314">  │       └── minimatch@3.0.3 </tspan>
<tspan x="10" y="4330">  ├─┬ terminal-menu@2.1.1 </tspan>
<tspan x="10" y="4346">  │ ├── charm@0.1.2 </tspan>
<tspan x="10" y="4362">  │ ├── duplexer2@0.0.2 </tspan>
<tspan x="10" y="4378">  │ ├── resumer@0.0.0 </tspan>
<tspan x="10" y="4394">  │ ├─┬ through2@0.6.5 </tspan>
<tspan x="10" y="4410">  │ │ └── readable-stream@1.0.34 </tspan>
<tspan x="10" y="4426">  │ └── visualwidth@0.0.1 </tspan>
<tspan x="10" y="4442">  ├─┬ through2@2.0.3 </tspan>
<tspan x="10" y="4458">  │ └─┬ readable-stream@2.2.6 </tspan>
<tspan x="10" y="4474">  │   └── isarray@1.0.0 </tspan>
<tspan x="10" y="4490">  ├─┬ trumpet@1.7.2 </tspan>
<tspan x="10" y="4506">  │ ├── duplexer2@0.0.2 </tspan>
<tspan x="10" y="4522">  │ ├─┬ html-select@2.3.24 </tspan>
<tspan x="10" y="4538">  │ │ ├── cssauron@1.4.0 </tspan>
<tspan x="10" y="4554">  │ │ ├── duplexer2@0.0.2 </tspan>
<tspan x="10" y="4570">  │ │ ├── minimist@0.0.10 </tspan>
<tspan x="10" y="4586">  │ │ ├── split@0.3.3 </tspan>
<tspan x="10" y="4602">  │ │ ├─┬ stream-splicer@1.3.2 </tspan>
<tspan x="10" y="4618">  │ │ │ └── readable-wrap@1.0.0 </tspan>
<tspan x="10" y="4634">  │ │ └── through2@1.1.1 </tspan>
<tspan x="10" y="4650">  │ ├─┬ html-tokenize@1.2.5 </tspan>
<tspan x="10" y="4666">  │ │ ├── minimist@0.0.10 </tspan>
<tspan x="10" y="4682">  │ │ ├── readable-stream@1.0.34 </tspan>
<tspan x="10" y="4698">  │ │ └─┬ through2@0.4.2 </tspan>
<tspan x="10" y="4714">  │ │   └── xtend@2.1.2 </tspan>
<tspan x="10" y="4730">  │ ├── readable-stream@1.1.14 </tspan>
<tspan x="10" y="4746">  │ └── through2@1.1.1 </tspan>
<tspan x="10" y="4762">  ├── tuple-stream@0.0.2 </tspan>
<tspan x="10" y="4778">  ├─┬ websocket-stream@3.0.1 </tspan>
<tspan x="10" y="4794">  │ ├─┬ duplexify@3.5.0 </tspan>
<tspan x="10" y="4810">  │ │ ├─┬ end-of-stream@1.0.0 </tspan>
<tspan x="10" y="4826">  │ │ │ └── once@1.3.3 </tspan>
<tspan x="10" y="4842">  │ │ ├─┬ readable-stream@2.2.6 </tspan>
<tspan x="10" y="4858">  │ │ │ └── isarray@1.0.0 </tspan>
<tspan x="10" y="4874">  │ │ └── stream-shift@1.0.0 </tspan>
<tspan x="10" y="4890">  │ └─┬ ws@1.1.4 </tspan>
<tspan x="10" y="4906">  │   ├── options@0.0.6 </tspan>
<tspan x="10" y="4922">  │   └── ultron@1.0.2 </tspan>
<tspan x="10" y="4938">  ├── wordwrap@1.0.0 </tspan>
<tspan x="10" y="4954">  └── x256@0.0.2</tspan>
</text>
</svg>
